<?xml version="1.0" encoding="UTF-8"?>
<svg xmlns="http://www.w3.org/2000/svg" width="1500" height="645" viewBox="0 0 1500 645">
<rect width="100%" height="100%" fill="white"/>
<text x="40" y="42" font-family="Arial, sans-serif" font-size="25" font-weight="700" fill="#222">Cronograma aproximado do desenvolvemento</text>
<text x="40" y="68" font-family="Arial, sans-serif" font-size="15" fill="#555">Outubro de 2025 - xuño de 2026</text>
<line x1="430.0" y1="65" x2="430.0" y2="585" stroke="#d8d8d8" stroke-width="1"/>
<text x="434.0" y="55" font-family="Arial, sans-serif" font-size="15" fill="#333">Out.</text>
<line x1="553.3" y1="65" x2="553.3" y2="585" stroke="#d8d8d8" stroke-width="1"/>
<text x="557.3" y="55" font-family="Arial, sans-serif" font-size="15" fill="#333">Nov.</text>
<line x1="672.6" y1="65" x2="672.6" y2="585" stroke="#d8d8d8" stroke-width="1"/>
<text x="676.6" y="55" font-family="Arial, sans-serif" font-size="15" fill="#333">Dec.</text>
<line x1="795.9" y1="65" x2="795.9" y2="585" stroke="#d8d8d8" stroke-width="1"/>
<text x="799.9" y="55" font-family="Arial, sans-serif" font-size="15" fill="#333">Xan.</text>
<line x1="919.2" y1="65" x2="919.2" y2="585" stroke="#d8d8d8" stroke-width="1"/>
<text x="923.2" y="55" font-family="Arial, sans-serif" font-size="15" fill="#333">Feb.</text>
<line x1="1030.5" y1="65" x2="1030.5" y2="585" stroke="#d8d8d8" stroke-width="1"/>
<text x="1034.5" y="55" font-family="Arial, sans-serif" font-size="15" fill="#333">Mar.</text>
<line x1="1153.8" y1="65" x2="1153.8" y2="585" stroke="#d8d8d8" stroke-width="1"/>
<text x="1157.8" y="55" font-family="Arial, sans-serif" font-size="15" fill="#333">Abr.</text>
<line x1="1273.1" y1="65" x2="1273.1" y2="585" stroke="#d8d8d8" stroke-width="1"/>
<text x="1277.1" y="55" font-family="Arial, sans-serif" font-size="15" fill="#333">Mai.</text>
<line x1="1396.4" y1="65" x2="1396.4" y2="585" stroke="#d8d8d8" stroke-width="1"/>
<text x="1400.4" y="55" font-family="Arial, sans-serif" font-size="15" fill="#333">Xuñ.</text>
<rect x="30" y="66" width="1440" height="46" fill="#f6f6f6"/>
<text x="40" y="95" font-family="Arial, sans-serif" font-size="16" fill="#222">Planificación e análise do problema</text>
<rect x="430.0" y="77" width="119.3" height="24" rx="4" fill="#1f77b4"/>
<rect x="30" y="112" width="1440" height="46" fill="#ffffff"/>
<text x="40" y="141" font-family="Arial, sans-serif" font-size="16" fill="#222">Revisión do material e variables expertas</text>
<rect x="505.6" y="123" width="163.1" height="24" rx="4" fill="#c23b75"/>
<rect x="30" y="158" width="1440" height="46" fill="#f6f6f6"/>
<text x="40" y="187" font-family="Arial, sans-serif" font-size="16" fill="#222">Limpeza inicial e preparación do dataset</text>
<rect x="609.0" y="169" width="95.4" height="24" rx="4" fill="#d97927"/>
<rect x="30" y="204" width="1440" height="46" fill="#ffffff"/>
<text x="40" y="233" font-family="Arial, sans-serif" font-size="16" fill="#222">Detección con YOLO e recorte das algas</text>
<rect x="672.6" y="215" width="222.7" height="24" rx="4" fill="#3f8f3f"/>
<rect x="30" y="250" width="1440" height="46" fill="#f6f6f6"/>
<text x="40" y="279" font-family="Arial, sans-serif" font-size="16" fill="#222">Normalización e curación dos recortes</text>
<rect x="895.3" y="261" width="91.5" height="24" rx="4" fill="#2a8c8c"/>
<rect x="30" y="296" width="1440" height="46" fill="#ffffff"/>
<text x="40" y="325" font-family="Arial, sans-serif" font-size="16" fill="#222">Preparación de splits e primeira CNN</text>
<rect x="1030.5" y="307" width="95.4" height="24" rx="4" fill="#1f77b4"/>
<rect x="30" y="342" width="1440" height="46" fill="#f6f6f6"/>
<text x="40" y="371" font-family="Arial, sans-serif" font-size="16" fill="#222">Reformulación ordinal e comparacións</text>
<rect x="1125.9" y="353" width="91.5" height="24" rx="4" fill="#c23b75"/>
<rect x="30" y="388" width="1440" height="46" fill="#ffffff"/>
<text x="40" y="417" font-family="Arial, sans-serif" font-size="16" fill="#222">Optimización de IVR e análise de erros</text>
<rect x="1213.4" y="399" width="143.2" height="24" rx="4" fill="#d97927"/>
<rect x="30" y="434" width="1440" height="46" fill="#f6f6f6"/>
<text x="40" y="463" font-family="Arial, sans-serif" font-size="16" fill="#222">Versión final e integración da pipeline</text>
<rect x="1352.6" y="445" width="59.7" height="24" rx="4" fill="#3f8f3f"/>
<rect x="30" y="480" width="1440" height="46" fill="#ffffff"/>
<text x="40" y="509" font-family="Arial, sans-serif" font-size="16" fill="#222">Validación con expertas e peche da memoria</text>
<rect x="1396.4" y="491" width="63.6" height="24" rx="4" fill="#2a8c8c"/>
<line x1="430" y1="65" x2="1460" y2="65" stroke="#777" stroke-width="1.2"/>
</svg>
